<svg class="" version="1.1" xmlns="http://www.w3.org/2000/svg" xmlns:xlink="http://www.w3.org/1999/xlink" x="0px" y="0px" viewBox="0 0 20 20" style="enable-background:new 0 0 20 20;" xml:space="preserve" width="20"  height="20" >
<symbol id="icon-miniCart_00000049917220351190812940000012889257554280723637_" viewBox="-6.5 -10 13 20">
	<path d="M4-4H2.5v-4c0-1.1-0.9-2-2-2h-1c-1.1,0-2,0.9-2,2v4H-4c-1.4,0-2.5,1.1-2.5,2.5v9C-6.5,8.9-5.4,10-4,10h8
		c1.4,0,2.5-1.1,2.5-2.5v-9C6.5-2.9,5.4-4,4-4z M-1.5-8c0-0.6,0.4-1,1-1h1c0.6,0,1,0.4,1,1v4h-3V-8z M5.5,7.5C5.5,8.3,4.8,9,4,9h-8
		c-0.8,0-1.5-0.7-1.5-1.5v-9C-5.5-2.3-4.8-3-4-3h8c0.8,0,1.5,0.7,1.5,1.5V7.5z"></path>
</symbol>
<g>
	<defs>
		<rect id="SVGID_1_" x="3.5" width="13" height="20"></rect>
	<rect id="SVGID_1_" x="1.2" width="17.7" height="20"></rect><symbol id="icon-miniCart_00000049917220351190812940000012889257554280723637_" viewBox="-6.5 -10 13 20">
	<path d="M4-4H2.5v-4c0-1.1-0.9-2-2-2h-1c-1.1,0-2,0.9-2,2v4H-4c-1.4,0-2.5,1.1-2.5,2.5v9C-6.5,8.9-5.4,10-4,10h8
		c1.4,0,2.5-1.1,2.5-2.5v-9C6.5-2.9,5.4-4,4-4z M-1.5-8c0-0.6,0.4-1,1-1h1c0.6,0,1,0.4,1,1v4h-3V-8z M5.5,7.5C5.5,8.3,4.8,9,4,9h-8
		c-0.8,0-1.5-0.7-1.5-1.5v-9C-5.5-2.3-4.8-3-4-3h8c0.8,0,1.5,0.7,1.5,1.5V7.5z"></path>
</symbol></defs>
	<clipPath id="SVGID_00000005233996736539981340000009053104877634923402_">
		<use xlink:href="#SVGID_1_" style="overflow:visible;"></use>
	</clipPath>
	<g style="clip-path:url(#SVGID_00000005233996736539981340000009053104877634923402_);">
		
			<use xlink:href="#icon-miniCart_00000049917220351190812940000012889257554280723637_" width="13" height="20" id="icon-miniCart" x="-6.5" y="-10" transform="matrix(1 0 0 1 10 10)" style="overflow:visible;"></use>
	</g>
</g>
</svg>