<svg class="fill brxe-icon" id="brxe-xgyaso" version="1.1" xmlns="http://www.w3.org/2000/svg" xmlns:xlink="http://www.w3.org/1999/xlink" x="0px" y="0px" viewBox="0 0 100 100" style="enable-background:new 0 0 100 100;" xml:space="preserve" width="100"  height="100" >
<g fill="#F5F5F5">
	<path d="M63.5,64l-11.4-8.6V35.1c0-1-0.8-1.8-1.8-1.8c-1,0-1.8,0.8-1.8,1.8v21c0,0,0,0.1,0,0.1c-0.1,0.6,0.2,1.2,0.7,1.6l12.1,9.1
		c0.8,0.6,2,0.4,2.6-0.4S64.3,64.6,63.5,64z" fill="#F5F5F5"></path>
	<path d="M50,19.2c-20.6,0-37.5,16.8-37.5,37.4c0,20.7,16.8,37.5,37.5,37.5c20.6,0,37.4-16.8,37.4-37.5C87.4,36,70.6,19.2,50,19.2z
		 M50,90.4c-18.6,0-33.8-15.1-33.8-33.8c0-18.6,15.1-33.7,33.8-33.7c18.6,0,33.8,15.1,33.8,33.7C83.8,75.3,68.6,90.4,50,90.4z" fill="#F5F5F5"></path>
	<path d="M44.1,14.4h11.8c2.7,0,4.9-2.2,4.9-4.9s-2.2-4.9-4.9-4.9H44.1c-2.7,0-4.9,2.2-4.9,4.9S41.4,14.4,44.1,14.4z M44.1,8.4h11.8
		c0.6,0,1.2,0.5,1.2,1.2s-0.5,1.2-1.2,1.2H44.1c-0.6,0-1.2-0.5-1.2-1.2S43.4,8.4,44.1,8.4z" fill="#F5F5F5"></path>
</g>
</svg>