<svg class="fill brxe-icon" id="brxe-ktzbiv" version="1.1" xmlns="http://www.w3.org/2000/svg" xmlns:xlink="http://www.w3.org/1999/xlink" x="0px" y="0px" viewBox="0 0 100 100" style="enable-background:new 0 0 100 100;" xml:space="preserve" width="100"  height="100" >
<g fill="#F5F5F5">
	<path d="M68.3,81.7c9-5.1,15.2-13.5,17.4-23.6c1.4-6.3,1-13-1.2-19.4c-1.4-4.1-3.4-7.8-5.9-11.3l-0.2-0.2L76.7,37
		c-0.1,0.5-0.4,0.9-0.8,1.2c-0.4,0.3-0.9,0.4-1.4,0.3c-0.5-0.1-0.9-0.4-1.2-0.8c-0.3-0.4-0.4-0.9-0.3-1.4l2.4-13.1
		c-0.1-0.8,0.2-1.5,0.9-1.9c0.7-0.4,1.5-0.4,2.1,0l0,0l12.9,3.3c1,0.2,1.6,1.3,1.4,2.3c0,0,0,0,0,0c-0.1,0.5-0.4,0.9-0.9,1.2
		s-1,0.3-1.5,0.2l0,0l-7.8-2l0.2,0.3c2.3,3.4,4.2,7.1,5.5,11c2.4,7,2.8,14.4,1.3,21.4C87,70.1,80.2,79.4,70.2,85
		c-8.9,5-19.7,6.8-28.9,4.8c-1-0.2-1.7-1.3-1.5-2.3c0.2-1,1.3-1.7,2.3-1.5C50.4,87.9,60.2,86.3,68.3,81.7z" fill="#F5F5F5"></path>
	<path d="M29.8,15c8.9-5,19.7-6.8,28.9-4.8c1,0.2,1.7,1.3,1.5,2.3c-0.2,1-1.3,1.7-2.3,1.5c-8.4-1.8-18.2-0.2-26.2,4.4
		c-9,5.1-15.2,13.5-17.4,23.6c-1.4,6.3-1,13,1.2,19.4c1.4,4.1,3.4,7.8,5.9,11.3l0.2,0.2l1.8-9.7c0,0,0,0,0-0.1
		c0.2-1,1.2-1.7,2.2-1.5c1,0.2,1.7,1.2,1.5,2.2l-2.4,13.1c0.1,0.8-0.2,1.5-0.9,1.9c-0.7,0.4-1.5,0.4-2.1,0l0,0L8.7,75.4
		c-0.5-0.1-0.9-0.4-1.2-0.9c-0.3-0.4-0.3-1-0.2-1.5c0.3-1,1.3-1.7,2.3-1.4l0,0l7.8,2l-0.2-0.3c-2.3-3.4-4.2-7.1-5.5-11
		C9.4,55.4,9,48,10.5,41.1C13,29.9,19.8,20.6,29.8,15z" fill="#F5F5F5"></path>
</g>
</svg>