<svg class="brxe-svg" id="brxe-xvcfzk" version="1.1" xmlns="http://www.w3.org/2000/svg" xmlns:xlink="http://www.w3.org/1999/xlink" x="0px" y="0px" width="443" height="74.1" viewBox="0 0 443 74.1" style="enable-background:new 0 0 443 74.1;" xml:space="preserve">
<style type="text/css">
	.st0{fill:#1D1D1B;}
</style>
<g>
	<path class="st0" d="M83.6,14.3H59.5V23c1.2,0,20.9,0,24.1,0s5.9,2.6,5.9,5.9v2H69.8c-8,0-14.5,6.5-14.5,14.5s6.5,14.5,14.5,14.5
		c0,0,28.2,0,28.3,0V28.8C98.1,20.9,91.7,14.3,83.6,14.3 M89.5,51.4H69.8c-3.3,0-5.9-2.7-5.9-5.9c0-3.3,2.7-5.9,5.9-5.9h19.3h0.5
		v11.8H89.5z"></path>
	<path class="st0" d="M156.9,14.3c8,0,14.5,6.5,14.5,14.5v31.1h-8.6v-31c0-3.3-2.7-5.9-5.9-5.9h-15v37h-8.6V23h-14.1
		c-3.3,0-5.9,2.7-5.9,5.9v31h-8.6V28.8c0-8,6.5-14.5,14.5-14.5L156.9,14.3L156.9,14.3z"></path>
	<path class="st0" d="M189.8,14.3c-6.4,0-11.6,5.2-11.6,11.6c0,4.8,2.9,9,7.4,10.8c22.9,7.2,22.9,7.2,22.9,7.2
		c1.5,0.5,2.5,2,2.5,3.6c0,2.1-1.7,3.8-3.8,3.8h-29.1v8.6h29.1c6.8,0,12.4-5.6,12.4-12.4c0-5.1-3.1-9.6-7.8-11.5l-9.4-3l-13.5-4.3
		c-1.2-0.4-2-1.5-2-2.8c0-1.6,1.3-3,3-3H215v-8.7L189.8,14.3L189.8,14.3z"></path>
	<path class="st0" d="M295.8,48.4V36.5v-7.6c0-8,6.5-14.5,14.5-14.5h14.9c8,0,14.5,6.5,14.5,14.5v8.8c0,0,0,21.4,0,22.2h-8.6
		c0-0.9,0-31,0-31c0-3.3-2.7-5.9-5.9-5.9h-14.9c-3.3,0-5.9,2.7-5.9,5.9v31h-8.6C295.8,59.1,295.8,48.4,295.8,48.4"></path>
	<path class="st0" d="M370.2,5.6v8.7c0,0,12.8,0,13.6,0v8.6h-13.6v22.4c0,3.3,2.7,5.9,5.9,5.9h12v8.6h-12c-8,0-14.5-6.5-14.5-14.5
		v-8.8c0,0,0-27,0-30.9L370.2,5.6L370.2,5.6z"></path>
	<rect x="346.4" y="14.3" class="st0" width="8.6" height="45.6"></rect>
	<path class="st0" d="M434.5,29c0-8-6.5-14.5-14.5-14.5h-12.3c-8,0-14.5,6.5-14.5,14.5v16.5c0,8,6.5,14.5,14.5,14.5h22.5v-8.6h-22.5
		c-3.3,0-5.9-2.7-5.9-5.9v-4.8c0,0,31.9,0,32.8,0C434.5,39.8,434.5,29,434.5,29 M425.9,32.1h-24.2V29c0-3.3,2.7-5.9,5.9-5.9h12.3
		c3.3,0,5.9,2.7,5.9,5.9v3.1H425.9z"></path>
	<path class="st0" d="M35.8,51.4c3.1,0,5.7-2.6,5.7-5.7c0-2.4-1.5-4.6-3.9-5.4L9.4,31.4C4.3,29.4,1,24.5,1,19C1,11.6,7,5.7,14.3,5.7
		h31.5v8.7H14.5c-2.5,0-4.7,2.1-4.7,4.7c0,2,1.3,3.8,3.2,4.4l14.4,4.6l13.9,4.4c5.4,2.2,8.9,7.4,8.9,13.2c0,7.9-6.4,14.3-14.3,14.3
		H1.1v-8.6L35.8,51.4L35.8,51.4z"></path>
	<path class="st0" d="M260,53.6c-5.4,5.7-13,8.1-20.2,7.1c1,1.8,2.3,3.6,3.9,5.1c8.1,7.6,20.8,7.2,28.3-0.9
		c7.6-8.1,7.2-20.7-0.9-28.3c-1.6-1.5-3.4-2.7-5.3-3.6C267.2,40.2,265.3,47.9,260,53.6"></path>
	<path class="st0" d="M273.5,34.1c5.7,5.4,8.1,13,7.1,20.2c1.8-1,3.6-2.3,5.1-3.9c7.6-8.1,7.2-20.7-0.9-28.3
		c-8.1-7.6-20.7-7.2-28.3,0.9c-1.5,1.6-2.7,3.4-3.6,5.3C260,26.8,267.8,28.7,273.5,34.1"></path>
	<path class="st0" d="M254,20.6c5.4-5.7,13-8.1,20.2-7.1c-1-1.8-2.3-3.6-3.9-5.1c-8.1-7.6-20.7-7.2-28.3,0.9
		c-7.6,8.1-7.2,20.7,0.9,28.3c1.6,1.5,3.4,2.7,5.3,3.6C246.7,34,248.6,26.3,254,20.6"></path>
	<path class="st0" d="M240.4,40.1c-5.7-5.4-8.1-13-7.1-20.2c-1.8,1-3.6,2.3-5.1,3.9c-7.6,8.1-7.2,20.7,0.9,28.3
		c8.1,7.6,20.7,7.2,28.3-0.9c1.5-1.6,2.7-3.4,3.6-5.3C253.9,47.4,246.2,45.5,240.4,40.1"></path>
</g>
</svg>