<svg class="fill brxe-icon" id="brxe-krujgc" version="1.1" xmlns="http://www.w3.org/2000/svg" xmlns:xlink="http://www.w3.org/1999/xlink" x="0px" y="0px" viewBox="0 0 100 100" style="enable-background:new 0 0 100 100;" xml:space="preserve" width="100"  height="100" >
<g fill="#F5F5F5">
	<polygon points="45.9,80.5 45.9,80.5 65.4,61.1 63,58.7 45.9,75.8 37,66.9 34.6,69.2 45.9,80.5 	" fill="#F5F5F5"></polygon>
	<path d="M84.3,41.4h-9V30.3C75.4,16.9,64.5,6,51,6C37.6,6,26.7,16.9,26.7,30.3v11.1h-11h-0.3h-3v3.3v19.1v27v3.3h3.3h68.7h3.3v-3.3
		V44.7v-3.3H84.3z M30.2,30.3c0-11.5,9.4-20.9,20.8-20.9c11.5,0,20.8,9.4,20.8,20.9v11.1H30.2V30.3z M84.3,90.8H15.7V44.7h68.7V90.8
		z" fill="#F5F5F5"></path>
</g>
</svg>