<svg class="brxe-icon" id="brxe-xxawch" xmlns="http://www.w3.org/2000/svg" xmlns:xlink="http://www.w3.org/1999/xlink" version="1.1" x="0px" y="0px" viewBox="0 0 20 20" style="enable-background:new 0 0 20 20;" xml:space="preserve" width="20"  height="20" ><defs><symbol id="icon-pin_00000126288309909708332660000007740064517046753423_" viewBox="-6.7 -9.6 13.4 19.2"> <path d="M0,9.6L-0.4,9C-4.7,3.9-6.7,0.3-6.7-2.4c0-4,3-7.2,6.7-7.2s6.7,3.2,6.7,7.2c0,2.7-2,6.3-6.2,11.4L0,9.6z M0-8.5 c-3.1,0-5.6,2.8-5.6,6.1c0,2.2,1.9,5.7,5.6,10.2c3.7-4.6,5.6-8,5.6-10.2C5.6-5.7,3.1-8.5,0-8.5z M0-0.7c-1.2,0-2.2-1-2.2-2.2 s1-2.2,2.2-2.2s2.2,1,2.2,2.2S1.2-0.7,0-0.7z M0-4.1c-0.7,0-1.1,0.4-1.1,1.1S-0.7-1.8,0-1.8s1.1-0.4,1.1-1.1S0.7-4.1,0-4.1z"></path> </symbol></defs> <symbol id="icon-pin_00000126288309909708332660000007740064517046753423_" viewBox="-6.7 -9.6 13.4 19.2"> <path d="M0,9.6L-0.4,9C-4.7,3.9-6.7,0.3-6.7-2.4c0-4,3-7.2,6.7-7.2s6.7,3.2,6.7,7.2c0,2.7-2,6.3-6.2,11.4L0,9.6z M0-8.5 c-3.1,0-5.6,2.8-5.6,6.1c0,2.2,1.9,5.7,5.6,10.2c3.7-4.6,5.6-8,5.6-10.2C5.6-5.7,3.1-8.5,0-8.5z M0-0.7c-1.2,0-2.2-1-2.2-2.2 s1-2.2,2.2-2.2s2.2,1,2.2,2.2S1.2-0.7,0-0.7z M0-4.1c-0.7,0-1.1,0.4-1.1,1.1S-0.7-1.8,0-1.8s1.1-0.4,1.1-1.1S0.7-4.1,0-4.1z"></path> </symbol> <use xlink:href="#icon-pin_00000126288309909708332660000007740064517046753423_" width="13.4" height="19.2" id="icon-pin" x="-6.7" y="-9.6" transform="matrix(1 0 0 1 10 10.1666)" style="overflow:visible;"></use> </svg>